<svg xmlns="http://www.w3.org/2000/svg" xml:space="preserve" width="800" height="800" viewBox="0 0 199.349 199.349"><path d="M99.526 42.255c-18.574 0-33.677 15.106-33.677 33.666 0 18.567 15.103 33.677 33.677 33.677 18.556 0 33.67-15.113 33.67-33.677 0-18.559-15.11-33.666-33.67-33.666zm0 62.759c-16.044 0-29.092-13.052-29.092-29.092s13.048-29.085 29.092-29.085c16.037 0 29.078 13.048 29.078 29.085s-13.041 29.092-29.078 29.092z" style="fill:#010002"/><path d="M99.794 33.63c-23.409 0-42.456 19.047-42.456 42.456 0 23.402 19.047 42.449 42.456 42.449s42.456-19.047 42.456-42.449c0-23.405-19.05-42.456-42.456-42.456zm0 80.979c-21.237 0-38.523-17.286-38.523-38.523s17.286-38.519 38.523-38.519c21.248 0 38.519 17.282 38.519 38.519s-17.271 38.523-38.519 38.523z" style="fill:#010002"/><path d="M99.787 62.623c-7.433 0-13.456 6.03-13.456 13.464 0 7.437 6.023 13.46 13.456 13.46 7.444 0 13.46-6.027 13.46-13.46 0-7.434-6.016-13.464-13.46-13.464z" style="fill:#010002"/><path d="M173.182 143.011v-16.885h-14.194c.383-1.403.58-2.849.58-4.33V35.552c0-9.18-7.473-16.652-16.656-16.652h-5.558C136.109 8.206 120.083 0 99.787 0 79.502 0 63.473 8.206 62.224 18.9h-5.558c-9.183 0-16.649 7.473-16.649 16.652v86.247c0 1.482.186 2.928.573 4.33H26.167v16.885h71.248v21.455l-24.061 32.356 3.389 2.523 21.104-28.391v18.13h4.219v-17.54l20.675 27.801 3.378-2.523-24.057-32.356V143.01h71.12zM99.787 4.223c17.204 0 31.845 6.592 33.319 14.677H66.475c1.471-8.085 16.116-14.677 33.312-14.677zM30.39 130.349h16.66l-1.514-3.046a12.32 12.32 0 0 1-1.303-5.508V35.552c0-6.853 5.583-12.429 12.433-12.429h86.247c6.861 0 12.436 5.579 12.436 12.429v86.247c0 1.915-.437 3.765-1.303 5.508l-1.507 3.046h16.43v8.439H30.39v-8.443z" style="fill:#010002"/></svg>